<?xml version="1.0" encoding="iso-8859-1"?>
<!-- Generator: Adobe Illustrator 17.1.0, SVG Export Plug-In . SVG Version: 6.00 Build 0)  -->
<!DOCTYPE svg PUBLIC "-//W3C//DTD SVG 1.1//EN" "http://www.w3.org/Graphics/SVG/1.1/DTD/svg11.dtd">
<svg version="1.1" id="Capa_1" xmlns="http://www.w3.org/2000/svg" xmlns:xlink="http://www.w3.org/1999/xlink" x="0px" y="0px"
	 viewBox="0 0 334.896 334.896" style="enable-background:new 0 0 334.896 334.896;" xml:space="preserve">
<path id="XMLID_703_" d="M186.584,70.474c6.075,0,11,4.925,11,11s-4.925,11-11,11H104.59c-6.075,0-11-4.925-11-11s4.925-11,11-11
	H186.584z M79.791,282.223H35.632V22h219.905v103.443c0,6.075,4.925,11,11,11s11-4.925,11-11V11c0-6.075-4.925-11-11-11H24.632
	c-6.075,0-11,4.925-11,11v282.223c0,6.075,4.925,11,11,11h55.159c6.075,0,11-4.925,11-11S85.866,282.223,79.791,282.223z
	 M197.583,124.672c0-6.075-4.925-11-11-11H104.59c-6.075,0-11,4.925-11,11s4.925,11,11,11h81.992
	C192.658,135.672,197.583,130.748,197.583,124.672z M162.28,282.082c4.983,3.478,11.838,2.256,15.315-2.726l12.424-17.803h56.929
	l12.422,17.803c2.139,3.065,5.557,4.707,9.031,4.707c2.173,0,4.368-0.643,6.285-1.98c4.982-3.477,6.203-10.333,2.727-15.315
	L266.1,250.553l11.313-16.214c3.477-4.982,2.256-11.839-2.727-15.315c-4.984-3.477-11.839-2.256-15.315,2.727l-12.422,17.803H190.02
	l-12.424-17.804c-3.477-4.982-10.334-6.203-15.315-2.726c-4.982,3.477-6.203,10.333-2.726,15.315l11.314,16.214l-11.314,16.213
	C156.077,271.749,157.298,278.605,162.28,282.082z M321.265,177.21v146.687c0,6.075-4.925,11-11,11H126.703c-6.075,0-11-4.925-11-11
	V177.21c0-6.075,4.925-11,11-11h183.562C316.34,166.21,321.265,171.135,321.265,177.21z M299.265,188.21H137.703v124.687h161.562
	V188.21z"/>
<g>
</g>
<g>
</g>
<g>
</g>
<g>
</g>
<g>
</g>
<g>
</g>
<g>
</g>
<g>
</g>
<g>
</g>
<g>
</g>
<g>
</g>
<g>
</g>
<g>
</g>
<g>
</g>
<g>
</g>
</svg>
